<?xml version="1.0" encoding="UTF-8"?>
<svg version="1.1" xmlns="http://www.w3.org/2000/svg" width="1200" height="1176">
<path d="M0 0 C179.85 0 359.7 0 545 0 C536.49902788 15.58511556 527.94649458 31.14668194 518.88842773 46.41674805 C515.1465212 52.72835239 511.47572707 59.07995305 507.8125 65.4375 C506.85657959 67.09616089 506.85657959 67.09616089 505.88134766 68.78833008 C503.9203862 72.1919253 501.96011785 75.59591889 500 79 C492.12380667 92.6757895 484.22879716 106.33961286 476.26708984 119.96582031 C470.10080946 130.52620282 463.9950405 141.12126766 457.89111328 151.71777344 C454.76319852 157.14659942 451.63141552 162.57319281 448.5 168 C447.24998121 170.16665583 445.99998122 172.3333225 444.75 174.5 C442.25 178.83333333 439.75 183.16666667 437.25 187.5 C436.63116943 188.57266113 436.01233887 189.64532227 435.37475586 190.75048828 C434.12564482 192.91557071 432.87645871 195.08060982 431.62719727 197.24560547 C428.48797691 202.68615706 425.35009437 208.12747216 422.21484375 213.5703125 C415.59777108 225.0544882 408.95366023 236.52196894 402.26708984 247.96582031 C396.10080946 258.52620282 389.9950405 269.12126766 383.89111328 279.71777344 C380.76319852 285.14659942 377.63141552 290.57319281 374.5 296 C373.24998121 298.16665583 371.99998122 300.3333225 370.75 302.5 C368.25 306.83333333 365.75 311.16666667 363.25 315.5 C362.63116943 316.57266113 362.01233887 317.64532227 361.37475586 318.75048828 C360.12564482 320.91557071 358.87645871 323.08060982 357.62719727 325.24560547 C354.48797691 330.68615706 351.35009437 336.12747216 348.21484375 341.5703125 C341.59777108 353.0544882 334.95366023 364.52196894 328.26708984 375.96582031 C322.10080946 386.52620282 315.9950405 397.12126766 309.89111328 407.71777344 C306.76319852 413.14659942 303.63141552 418.57319281 300.5 424 C299.24998121 426.16665583 297.99998122 428.3333225 296.75 430.5 C294.25 434.83333333 291.75 439.16666667 289.25 443.5 C288.63116943 444.57266113 288.01233887 445.64532227 287.37475586 446.75048828 C286.12564482 448.91557071 284.87645871 451.08060982 283.62719727 453.24560547 C280.48797691 458.68615706 277.35009437 464.12747216 274.21484375 469.5703125 C267.60153798 481.04795062 260.96248753 492.5096644 254.27807617 503.94604492 C250.56121355 510.30994692 246.86680805 516.68636134 243.1887207 523.07275391 C241.91058781 525.29101705 240.63052098 527.50816717 239.34838867 529.72412109 C236.52459255 534.6050045 233.71676356 539.49177811 230.97265625 544.41796875 C230.51793945 545.22242432 230.06322266 546.02687988 229.59472656 546.85571289 C228.76546988 548.323333 227.94757592 549.79745721 227.14355469 551.27905273 C226.05078125 553.1953125 226.05078125 553.1953125 224 556 C220 556 220 556 218.359375 554.71484375 C217.82828125 554.12832031 217.2971875 553.54179688 216.75 552.9375 C214.26852721 550.30226073 211.7522495 547.85221323 209 545.5 C206.39352391 543.2544206 203.91065479 540.95448488 201.5 538.5 C199.10946833 536.06610268 196.64953738 533.78644441 194.0625 531.5625 C190.53365237 528.52320349 187.26994973 525.28983153 184.00390625 521.97265625 C181.41753849 519.42662171 178.6846472 517.07978443 175.93359375 514.71484375 C173.4376449 512.50126487 171.12297983 510.13578078 168.7890625 507.75390625 C166.30642769 505.32005684 163.66392562 503.09384683 160.9921875 500.87109375 C158.39653336 498.43321466 156.24242408 495.76617365 154 493 C161.77412515 478.87837563 169.62755292 464.82147344 177.79736328 450.92382812 C181.95669651 443.83227599 186.00256043 436.68391745 190 429.5 C195.13625165 420.27065229 200.40212624 411.12762875 205.75 402.01953125 C209.92243959 394.8947181 213.98495244 387.71453859 218 380.5 C222.57572123 372.27800092 227.23582369 364.11425786 232 356 C237.41151443 346.78074724 242.68087485 337.49034578 247.88623047 328.15332031 C253.04193037 318.90751869 258.2829149 309.71258466 263.54980469 300.52978516 C265.95446773 296.33498408 268.35186817 292.13603713 270.75 287.9375 C271.74996442 286.18747967 272.74996545 284.43748026 273.75 282.6875 C274.27078125 281.77613281 274.7915625 280.86476563 275.328125 279.92578125 C301.44270833 234.22526042 327.55729167 188.52473958 353.671875 142.82421875 C354.25227539 141.80714844 354.83267578 140.79007813 355.43066406 139.7421875 C356.38608532 138.07272708 357.34536088 136.4054547 358.31152344 134.7421875 C362.97848024 126.69886855 363.00542574 118.13915084 360.74609375 109.1953125 C358.26595395 101.89772839 353.67885803 96.7923353 347 93 C342.83556217 91.39637283 339.38952105 90.75063224 334.93618965 90.75390434 C333.73640547 90.74992225 332.53662129 90.74594015 331.30048001 90.74183738 C329.99114369 90.74766307 328.68180737 90.75348875 327.33279419 90.75949097 C325.92105815 90.75861849 324.50932242 90.75686673 323.09758842 90.75431263 C319.22316627 90.74984339 315.34885482 90.75783697 311.47444677 90.76786876 C307.29455414 90.77650704 303.11466773 90.77358283 298.93476868 90.77206421 C291.69443407 90.7710156 284.45413551 90.77728972 277.21380997 90.78853989 C266.74552425 90.80479514 256.27725596 90.81000292 245.80895899 90.81251587 C228.82477788 90.81689293 211.84061599 90.83020234 194.85644531 90.84912109 C178.35807389 90.8674796 161.8597077 90.88163625 145.36132812 90.89013672 C144.34433897 90.89066217 143.32734982 90.89118761 142.27954282 90.89172898 C137.17759836 90.89433906 132.07565386 90.89686648 126.97370934 90.89935279 C84.6491225 90.92008564 42.32457119 90.95695559 0 91 C0 60.97 0 30.94 0 0 Z " fill="#FF6618" transform="translate(8,525)"/>
<path d="M0 0 C3.21693815 2.96418818 5.33784972 5.96277592 7.51171875 9.75 C7.83690994 10.31146729 8.16210114 10.87293457 8.49714661 11.45141602 C9.19862747 12.66353057 9.89740988 13.87721004 10.59375 15.09228516 C12.47981399 18.38195123 14.38707241 21.65929689 16.29296875 24.9375 C16.68447113 25.61184082 17.07597351 26.28618164 17.4793396 26.98095703 C21.39486378 33.71015035 25.43762136 40.35880776 29.5 47 C35.63571055 57.0423434 41.63602407 67.15568835 47.5625 77.32275391 C52.78249662 86.27303304 58.09966525 95.15744821 63.5 104 C69.63380175 114.04353659 75.63599795 124.15564354 81.5625 134.32275391 C86.78249662 143.27303304 92.09966525 152.15744821 97.5 161 C103.63380175 171.04353659 109.63599795 181.15564354 115.5625 191.32275391 C120.78249662 200.27303304 126.09966525 209.15744821 131.5 218 C137.63380175 228.04353659 143.63599795 238.15564354 149.5625 248.32275391 C154.78249662 257.27303304 160.09966525 266.15744821 165.5 275 C171.63380175 285.04353659 177.63599795 295.15564354 183.5625 305.32275391 C188.78249662 314.27303304 194.09966525 323.15744821 199.5 332 C205.63380175 342.04353659 211.63599795 352.15564354 217.5625 362.32275391 C222.78249662 371.27303304 228.09966525 380.15744821 233.5 389 C239.63380175 399.04353659 245.63599795 409.15564354 251.5625 419.32275391 C257.12261816 428.85621017 262.80197268 438.30982441 268.55545044 447.72766113 C274.86046821 458.05355829 280.99686526 468.47186185 287.07763672 478.93115234 C291.33785768 486.24590662 295.68370065 493.49109609 300.39819336 500.52441406 C301.5078125 502.2265625 301.5078125 502.2265625 303 505 C301.72240441 508.83278677 299.89639834 509.35887785 296.42788696 511.13270569 C295.24541885 511.71863747 295.24541885 511.71863747 294.0390625 512.31640625 C293.21989349 512.73236557 292.40072449 513.14832489 291.55673218 513.57688904 C288.91741395 514.91474776 286.27153812 516.23898991 283.625 517.5625 C281.05599089 518.85792721 278.48841388 520.1561605 275.92094421 521.45463562 C274.20089814 522.32441893 272.48036343 523.19323657 270.75935364 524.06111145 C259.64652324 529.67399448 248.62878372 535.47051801 237.69140625 541.41796875 C236.82322266 541.88654297 235.95503906 542.35511719 235.06054688 542.83789062 C233.33183547 543.77185433 231.60817361 544.71520276 229.88867188 545.66601562 C229.03982422 546.12041016 228.19097656 546.57480469 227.31640625 547.04296875 C226.57849854 547.44539795 225.84059082 547.84782715 225.08032227 548.26245117 C222.56451196 549.15439612 221.43696583 549.05277954 219 548 C217.50640771 545.7826135 216.28195405 543.67561801 215.0625 541.3125 C214.26428566 539.83194655 213.46335553 538.35285505 212.66015625 536.875 C212.23105957 536.0809375 211.80196289 535.286875 211.35986328 534.46875 C209.00433112 530.19242304 206.49817533 526.00656459 204 521.8125 C202.88497543 519.93385556 201.77040968 518.05493875 200.65625 516.17578125 C200.06972656 515.18658691 199.48320313 514.19739258 198.87890625 513.17822266 C195.40142139 507.29595942 191.95234043 501.39704295 188.5 495.5 C183.00383167 486.11426607 177.49034471 476.73912324 171.94873047 467.38012695 C168.9346091 462.2857128 165.93339921 457.18394476 162.9453125 452.07421875 C162.59393219 451.47343002 162.24255188 450.8726413 161.88052368 450.25364685 C161.34774307 449.34269005 161.34774307 449.34269005 160.80419922 448.41333008 C160.07781758 447.17137613 159.35141775 445.92943282 158.625 444.6875 C158.26472717 444.07151947 157.90445435 443.45553894 157.53326416 442.82089233 C152.53738637 434.28325263 147.48409874 425.78306026 142.375 417.3125 C136.67032489 407.85261077 131.1201115 398.31233969 125.62451172 388.72973633 C121.33475436 381.26707821 116.94901817 373.86868634 112.5 366.5 C106.75138936 356.97886362 101.15782789 347.37833738 95.625 337.73046875 C91.33498134 330.26762379 86.94916973 322.86893737 82.5 315.5 C76.75138936 305.97886362 71.15782789 296.37833738 65.625 286.73046875 C60.73725111 278.22782225 55.71044786 269.81576321 50.64038086 261.42089844 C46.01964125 253.75014371 41.52312544 246.01448317 37.0625 238.25 C36.42787842 237.15461914 35.79325684 236.05923828 35.1394043 234.93066406 C32.59951246 230.54617873 30.06631491 226.17016227 27.703125 221.6875 C23.30708047 213.69469176 18.7715514 209.78371774 10 207 C1.96215763 204.94297821 -4.93406845 206.393875 -12.23999023 210.15234375 C-18.59311569 214.05543251 -21.61270275 218.39022107 -25 224.9375 C-26.03123408 226.83405058 -27.06379285 228.72988146 -28.09765625 230.625 C-28.59281738 231.54796875 -29.08797852 232.4709375 -29.59814453 233.421875 C-31.44721351 236.82246163 -33.41997849 240.13499833 -35.4375 243.4375 C-36.16085381 244.63239049 -36.88348797 245.82771689 -37.60546875 247.0234375 C-38.17273682 247.96268066 -38.17273682 247.96268066 -38.75146484 248.92089844 C-41.27381398 253.12119668 -43.75969068 257.34315621 -46.25 261.5625 C-46.80381348 262.50061523 -47.35762695 263.43873047 -47.92822266 264.40527344 C-49.06020927 266.32315326 -50.19204431 268.24112256 -51.32373047 270.15917969 C-53.98512693 274.66952184 -56.64857333 279.1786519 -59.3125 283.6875 C-59.84069336 284.58154541 -60.36888672 285.47559082 -60.91308594 286.39672852 C-65.61180524 294.34770687 -70.32036477 302.29284385 -75.02993774 310.23739624 C-79.52574289 317.82152308 -84.01665517 325.4085009 -88.5 333 C-93.32570018 341.17119806 -98.16080436 349.33678784 -103 357.5 C-110.01088038 369.32691822 -117.00869295 381.16150318 -124 393 C-131.33365584 405.41820175 -138.67561105 417.83142352 -146.02993774 430.23739624 C-150.52574289 437.82152308 -155.01665517 445.4085009 -159.5 453 C-164.32570018 461.17119806 -169.16080436 469.33678784 -174 477.5 C-178.90104561 485.76775847 -183.79860451 494.03755027 -188.6875 502.3125 C-189.46903442 503.63495728 -189.46903442 503.63495728 -190.26635742 504.98413086 C-192.98560153 509.58641661 -195.70165711 514.19055524 -198.4140625 518.796875 C-201.12388045 523.3974165 -203.84203387 527.99291688 -206.56787109 532.58398438 C-207.47993401 534.12264353 -208.38940051 535.66284686 -209.29541016 537.20507812 C-210.39709036 539.07924224 -211.50908368 540.94679001 -212.625 542.8125 C-213.51058594 544.30716797 -213.51058594 544.30716797 -214.4140625 545.83203125 C-216 548 -216 548 -219 549 C-221.36230469 548.09472656 -221.36230469 548.09472656 -224.171875 546.640625 C-225.21641846 546.10767822 -226.26096191 545.57473145 -227.3371582 545.02563477 C-228.463396 544.43967529 -229.58963379 543.85371582 -230.75 543.25 C-232.53040392 542.34121511 -234.31082107 541.43245337 -236.09248352 540.52613831 C-237.30466024 539.90950826 -238.51631607 539.29185322 -239.72746277 538.67320251 C-245.21219698 535.87579681 -250.74954242 533.20004491 -256.3125 530.5625 C-258.1641593 529.68249532 -260.01571908 528.80228121 -261.8671875 527.921875 C-263.31303223 527.23448242 -263.31303223 527.23448242 -264.78808594 526.53320312 C-271.1816202 523.48125761 -277.55865636 520.39500101 -283.9375 517.3125 C-285.24454508 516.6810659 -286.55159254 516.04963673 -287.85864258 515.41821289 C-290.90597347 513.94591318 -293.95306216 512.473113 -297 511 C-295.62699382 507.34290821 -293.97693772 504.04409192 -292.015625 500.66796875 C-291.41741943 499.63462402 -290.81921387 498.6012793 -290.20288086 497.53662109 C-289.23620483 495.87880615 -289.23620483 495.87880615 -288.25 494.1875 C-287.57338299 493.02180155 -286.89703627 491.85594617 -286.22094727 490.68994141 C-284.48565246 487.69938419 -282.74615498 484.71129784 -281.00494385 481.72418213 C-280.05268174 480.09038605 -279.10126717 478.45609607 -278.14990234 476.82177734 C-273.53231971 468.88966294 -268.90199475 460.96501643 -264.27050781 453.04101562 C-262.53393164 450.06934495 -260.79798808 447.09730626 -259.0625 444.125 C-258.48604736 443.13781982 -257.90959473 442.15063965 -257.31567383 441.13354492 C-253.0579832 433.83388608 -248.83810175 426.51295842 -244.625 419.1875 C-238.8281074 409.11243287 -232.92726707 399.10287244 -226.98535156 389.11279297 C-221.75357515 380.30372268 -216.61403636 371.44431893 -211.50610352 362.56298828 C-207.34020689 355.3197159 -203.15101338 348.09067846 -198.9375 340.875 C-198.36298096 339.89104248 -197.78846191 338.90708496 -197.1965332 337.89331055 C-194.88864798 333.94208378 -192.57955677 329.9915624 -190.27050781 326.04101562 C-188.53393164 323.06934495 -186.79798808 320.09730626 -185.0625 317.125 C-184.48604736 316.13781982 -183.90959473 315.15063965 -183.31567383 314.13354492 C-179.0579832 306.83388608 -174.83810175 299.51295842 -170.625 292.1875 C-164.8281074 282.11243287 -158.92726707 272.10287244 -152.98535156 262.11279297 C-147.75274196 253.30231978 -142.61197711 244.44173159 -137.50390625 235.55859375 C-132.79103301 227.36315523 -128.03611366 219.19317247 -123.26464844 211.03173828 C-119.02146824 203.76740426 -114.81868866 196.48049092 -110.625 189.1875 C-104.8281931 179.11238448 -98.92726625 169.10287105 -92.98535156 159.11279297 C-87.75274196 150.30231978 -82.61197711 141.44173159 -77.50390625 132.55859375 C-72.79103301 124.36315523 -68.03611366 116.19317247 -63.26464844 108.03173828 C-59.02146824 100.76740426 -54.81868866 93.48049092 -50.625 86.1875 C-44.82982806 76.1152261 -38.93180975 66.10777063 -32.98974609 56.12158203 C-27.71191919 47.23781836 -22.54209114 38.29515232 -17.39624023 29.33447266 C-11.72530854 19.47892073 -5.89775693 9.72121089 0 0 Z " fill="#FF6618" transform="translate(599,617)"/>
<path d="M0 0 C37.18596813 -0.03127924 74.37193917 -0.05097974 111.55791843 -0.06185675 C113.74179356 -0.06249759 115.92566868 -0.06315664 118.1095438 -0.06381607 C196.38441119 -0.08706275 274.65829756 -0.00639729 414.05760694 0.49097854 C416.38319917 0.50003192 418.70879147 0.50906798 421.03438377 0.51810217 C460.02296234 0.66967542 499.01149267 0.83100456 538 1 C538 30.7 538 60.4 538 91 C529.75064453 90.96970703 521.50128906 90.93941406 513.00195312 90.90820312 C486.36272467 90.81052521 459.72349261 90.71386557 433.08425823 90.61781773 C428.92042994 90.60280412 424.75660168 90.58778174 420.59277344 90.57275391 C419.76410946 90.56976329 418.93544547 90.56677268 418.08167046 90.56369144 C404.80492206 90.51575543 391.52817634 90.46711409 378.25143152 90.41819459 C364.54637341 90.36771329 350.84131256 90.31803042 337.13624907 90.26903296 C329.47287515 90.24161392 321.80950282 90.21385301 314.14613342 90.18519592 C311.93899149 90.17698521 309.73184951 90.16878681 307.5247075 90.16059679 C306.07106171 90.15518674 304.61741604 90.14974445 303.1637705 90.14426953 C295.44339835 90.11526357 287.72304191 90.08926943 280.00263214 90.07273102 C277.3048958 90.06673525 274.60715979 90.06060444 271.90942383 90.05444336 C270.59293523 90.05148994 269.27644664 90.04853652 267.92006445 90.0454936 C259.87226946 90.02324638 251.82555146 89.96702309 243.77821016 89.88508749 C238.57715698 89.83273286 233.37599163 89.79897954 228.17478466 89.76581669 C225.75418316 89.74644389 223.33362618 89.71994758 220.91318989 89.68566799 C217.59640691 89.63920548 214.28030644 89.61774434 210.96325684 89.60168457 C210.00858489 89.58173589 209.05391294 89.5617872 208.07031155 89.54123402 C199.78600042 89.54483247 192.64465454 91.70521751 185.625 96.125 C179.39138157 102.95229637 176.89347028 110.69018143 176.75 119.8125 C176.72421875 120.78832031 176.6984375 121.76414062 176.671875 122.76953125 C177.51537795 131.07401867 182.05348756 137.86076311 186.25 144.875 C187.51632855 147.01781355 188.78192875 149.16105766 190.046875 151.3046875 C190.69978516 152.40780273 191.35269531 153.51091797 192.02539062 154.64746094 C195.22264136 160.07582977 198.36006261 165.53834728 201.5 171 C206.30775665 179.34841998 211.13905983 187.68243698 216 196 C224.02281678 209.73046817 231.95858328 223.51078086 239.89550781 237.29101562 C247.14033048 249.8676392 254.4073281 262.43036957 261.73071289 274.96142578 C266.65051282 283.38569339 271.52522138 291.83553896 276.39453125 300.2890625 C280.57349158 307.53951541 284.77747989 314.77483863 289 322 C297.02281678 335.73046817 304.95858328 349.51078086 312.89550781 363.29101562 C320.14033048 375.8676392 327.4073281 388.43036957 334.73071289 400.96142578 C339.65051282 409.38569339 344.52522138 417.83553896 349.39453125 426.2890625 C354.13633868 434.5160493 358.91450638 442.72124091 363.70629883 450.91918945 C368.87683862 459.77216963 374.00136815 468.65131345 379.11523438 477.53710938 C379.71013672 478.57029297 380.30503906 479.60347656 380.91796875 480.66796875 C381.44156982 481.57828857 381.9651709 482.4886084 382.50463867 483.42651367 C383.9790263 486.04947341 383.9790263 486.04947341 385.81762695 488.58325195 C387 491 387 491 386.38720703 493.11206055 C384.97794554 495.03001533 383.55691354 496.59696506 381.8046875 498.20703125 C381.1753833 498.7899292 380.5460791 499.37282715 379.89770508 499.97338867 C379.2302124 500.58029541 378.56271973 501.18720215 377.875 501.8125 C376.84959106 502.756698 376.84959106 502.756698 375.8034668 503.7199707 C371.92474916 507.28081369 368.0106655 510.79583252 364.01953125 514.23046875 C361.30513807 516.6088442 358.65427613 519.05508905 356 521.5 C352.09025645 525.10020455 348.14133329 528.64417782 344.125 532.125 C341.38175867 534.54550706 338.69146418 537.02233594 336 539.5 C329.00038541 545.93069116 329.00038541 545.93069116 325.625 548.9375 C325.06039063 549.44152344 324.49578125 549.94554687 323.9140625 550.46484375 C321.38980016 552.48940518 318.70892863 554.2334733 316 556 C308.87922461 543.89926111 301.82727961 531.76913143 295 519.5 C290.42432266 511.27797983 285.76429305 503.1141866 281 495 C275.62720551 485.84945939 270.4072756 476.62331625 265.24780273 467.35107422 C261.27184365 460.22371733 257.19836002 453.16060908 253.0625 446.125 C247.42100837 436.52434496 241.98787386 426.82047748 236.60791016 417.07128906 C231.92756413 408.61248188 227.09813666 400.2516336 222.19921875 391.91796875 C218.04099732 384.82838852 213.9963387 377.68193905 210 370.5 C205.424336 362.2779741 200.76429252 354.1141857 196 346 C190.62803207 336.85086711 185.40923475 327.62596869 180.25 318.35546875 C176.25035548 311.18646305 172.15651956 304.07907237 168 297 C162.62803207 287.85086711 157.40923475 278.62596869 152.25 269.35546875 C148.25035548 262.18646305 144.15651956 255.07907237 140 248 C134.62803207 238.85086711 129.40923475 229.62596869 124.25 220.35546875 C120.25035548 213.18646305 116.15651956 206.07907237 112 199 C106.62803207 189.85086711 101.40923475 180.62596869 96.25 171.35546875 C92.25035444 164.1864612 88.15644491 157.07911736 84 150 C78.65549523 140.89565065 73.45600865 131.7196198 68.3203125 122.49609375 C64.11527415 114.95699382 59.82864901 107.46873478 55.5 100 C50.57250258 91.49800059 45.71795601 82.9605275 40.9375 74.375 C35.8266242 65.19839378 30.586642 56.10694404 25.26733398 47.04980469 C20.32569299 38.61336513 15.53466005 30.09711012 10.79296875 21.546875 C7.68992668 15.96288044 4.49713598 10.47299041 1.08398438 5.07177734 C0 3 0 3 0 0 Z " fill="#FF6618" transform="translate(653,525)"/>
<path d="M0 0 C22.70720091 19.88320892 37.4365105 47.57866393 41.9453125 77.41015625 C42.05617188 78.13332031 42.16703125 78.85648437 42.28125 79.6015625 C46.52218773 113.47175435 37.03677796 147.08025443 16.79296875 174.3046875 C-4.87134478 201.68869321 -34.60784345 219.26811969 -69.4296875 223.59765625 C-103.34558081 227.37942842 -137.48776638 218.55194602 -164.4296875 197.34765625 C-165.9802592 196.0456886 -167.52229176 194.73346863 -169.0546875 193.41015625 C-169.81136719 192.78625 -170.56804688 192.16234375 -171.34765625 191.51953125 C-195.34408808 171.1989728 -209.55919685 140.27658706 -213.0546875 109.41015625 C-214.81046492 71.78343774 -205.69427922 38.61666996 -180.4296875 10.09765625 C-178.97668143 8.53020107 -177.51885027 6.96719502 -176.0546875 5.41015625 C-175.52875 4.81976563 -175.0028125 4.229375 -174.4609375 3.62109375 C-128.94666863 -45.37640998 -48.25487638 -41.26296817 0 0 Z " fill="#FF6618" transform="translate(689.0546875,43.58984375)"/>
<path d="M0 0 C15.51 -0.165 31.02 -0.33 47 -0.5 C51.88683594 -0.57283203 56.77367187 -0.64566406 61.80859375 -0.72070312 C67.80273438 -0.75683594 67.80273438 -0.75683594 70.61401367 -0.7635498 C72.56631071 -0.77578859 74.51854938 -0.80383169 76.47045898 -0.84460449 C92.94380237 -1.17133654 92.94380237 -1.17133654 98 1.70898438 C100.0318019 3.70759894 101.49246258 5.59370016 103 8 C104.0243245 9.20249117 105.06389852 10.39233363 106.125 11.5625 C106.68445313 12.21347656 107.24390625 12.86445313 107.8203125 13.53515625 C110.81343199 16.91984872 113.90823545 20.20552982 117 23.5 C121.13634681 27.9107073 125.22635495 32.33869514 129.171875 36.921875 C132.20295466 40.36746128 135.33826452 43.7168809 138.45751953 47.08251953 C141.49785683 50.36555291 144.51435549 53.66693503 147.5 57 C150.96489833 60.86662567 154.47304568 64.69013786 158 68.5 C162.27977624 73.12350101 166.51758655 77.78092388 170.72265625 82.47265625 C173.75724788 85.8403763 176.82501418 89.17728178 179.89233398 92.51513672 C183.73081022 96.69627346 187.5318972 100.91014154 191.3203125 105.13671875 C192.19557461 106.10764905 193.07566527 107.07566527 194 108 C194.495 54.54 194.495 54.54 195 0 C218.76 0 242.52 0 267 0 C267 55.11 267 110.22 267 167 C250.850625 167.20625 234.70125 167.4125 218.0625 167.625 C212.97593994 167.71604004 207.88937988 167.80708008 202.64868164 167.90087891 C196.40515137 167.94604492 196.40515137 167.94604492 193.47605896 167.95443726 C191.44373136 167.96972703 189.41149082 168.00476376 187.37974548 168.05575562 C170.21240954 168.46482506 170.21240954 168.46482506 164.69242859 164.81007385 C162.41487693 162.31029366 160.6908127 159.91759562 159 157 C158.19949219 156.03449219 157.39898438 155.06898438 156.57421875 154.07421875 C155.95160156 153.28660156 155.32898438 152.49898437 154.6875 151.6875 C150.79679292 146.87334412 146.66999534 142.35075666 142.44213867 137.83666992 C138.54031611 133.64706391 134.92689822 129.27845286 131.34375 124.8125 C128.66791722 121.60150066 125.85640293 118.54972364 123 115.5 C118.54125556 110.73911006 114.3620217 105.8353218 110.27734375 100.74609375 C107.7817361 97.73681042 105.16236519 94.86059714 102.5 92 C99.04838064 88.29138312 95.73477852 84.51494105 92.5625 80.5625 C88.60611354 75.64026875 84.39998731 71.00855116 80.07250977 66.41430664 C77.51829478 63.69390871 75.24722376 60.99629834 73 58 C72.67 93.97 72.34 129.94 72 167 C48.24 167 24.48 167 0 167 C0 111.89 0 56.78 0 0 Z " fill="#FF6618" transform="translate(574,312)"/>
<path d="M0 0 C1.27359375 0.26425781 2.5471875 0.52851563 3.859375 0.80078125 C18.47806822 4.24314988 33.62953731 10.74087616 42.64453125 23.2890625 C47.3490372 31.17961715 48 37.68173422 48 47 C24.9 47 1.8 47 -22 47 C-23.65 43.7 -25.3 40.4 -27 37 C-38.91046548 27.22731038 -60.6285513 29.17650214 -75 30 C-81.83832844 30.72285832 -88.95083262 32.09108727 -94 37 C-95.32908167 39.89072953 -95.32908167 39.89072953 -95 43 C-92.99102765 47.21884193 -90.26923197 48.46802968 -86.0703125 50.0078125 C-80.16060555 52.07447405 -74.29215593 53.24577408 -68.125 54.25 C-65.66790406 54.67149809 -63.21087802 55.09340373 -60.75390625 55.515625 C-59.37260739 55.7496372 -57.99125747 55.98334813 -56.60986328 56.21679688 C-48.40318345 57.60723399 -40.20417882 59.04164959 -32.00653076 60.48425293 C-29.14803502 60.98501563 -26.28822385 61.47764704 -23.42822266 61.96972656 C-14.09996612 63.59399285 -4.84233712 65.3973859 4.375 67.5703125 C5.2238829 67.76915039 6.07276581 67.96798828 6.94737244 68.17285156 C22.10378474 71.84720206 39.2869206 78.17181274 49 91 C55.4728103 102.00519388 57.99758064 112.4092062 55.3515625 125.11328125 C50.92399483 138.49059042 41.06270082 146.55362831 28.79125977 152.79345703 C-17.97225857 175.34686203 -93.73541397 174.91777649 -142 159 C-150.97805081 155.54835046 -159.35385269 151.06761031 -166 144 C-166.54914063 143.45859375 -167.09828125 142.9171875 -167.6640625 142.359375 C-176.21873677 133.34114695 -178 120.96957871 -178 109 C-153.58 109 -129.16 109 -104 109 C-103.01 114.94 -103.01 114.94 -102 121 C-95.87302862 128.6246755 -85.82115024 130.75882071 -76.39038086 131.81469727 C-49.63931086 133.92756809 -49.63931086 133.92756809 -25 125 C-23.08600064 122.47700084 -22.99599139 121.19241321 -23.0625 118 C-24.2554892 114.18243455 -25.7475064 113.26061252 -29 111 C-38.39485483 106.93274173 -48.86832009 105.61507438 -58.90286255 103.9928894 C-61.6215791 103.55293967 -64.33815068 103.1013903 -67.05444336 102.64672852 C-70.69067559 102.03866918 -74.32741723 101.43388216 -77.96484375 100.83300781 C-152.99634784 88.43031716 -152.99634784 88.43031716 -168 69 C-174.39222944 58.90880045 -176.08174569 48.71370336 -174 37 C-171.26377802 25.89027943 -163.21952962 17.74602023 -153.84765625 11.58984375 C-111.33081638 -12.14726712 -45.97055998 -9.87232821 0 0 Z " fill="#FF6618" transform="translate(244,311)"/>
<path d="M0 0 C1.85642294 -0.04930831 3.71284277 -0.09873348 5.56925964 -0.14826965 C9.46399155 -0.23820983 13.35704511 -0.28686781 17.25268555 -0.31420898 C21.22529953 -0.34917032 25.18128941 -0.46665498 29.14916992 -0.6628418 C61.84149685 -2.24829088 61.84149685 -2.24829088 69.71755981 4.10748291 C75.28675873 10.04297745 78.61190549 16.93673356 81.83206177 24.34408569 C84.24221826 29.58546995 87.44171318 34.17350128 90.71875 38.90234375 C91.8853792 40.66368127 93.04750795 42.4280081 94.20507812 44.1953125 C95.38014263 45.9779079 96.55527429 47.76045903 97.73046875 49.54296875 C98.35203857 50.4860791 98.9736084 51.42918945 99.61401367 52.40087891 C107.56413791 64.46209016 115.53975047 76.50546257 123.56881714 88.51425171 C132.74493082 102.24159026 141.82004774 116.03541963 150.89453125 129.83007812 C151.47761047 130.71601654 152.0606897 131.60195496 152.66143799 132.51473999 C153.82011735 134.27532519 154.97828629 136.03624643 156.13592529 137.79751587 C159.20463051 142.45967677 162.2953563 147.1056564 165.41503906 151.73388672 C166.06538116 152.70083969 166.71572327 153.66779266 167.38577271 154.66404724 C168.63950865 156.52583043 169.89707736 158.38503972 171.15890503 160.24134827 C171.71764313 161.0717009 172.27638123 161.90205353 172.85205078 162.75756836 C173.34867218 163.49043564 173.84529358 164.22330292 174.35696411 164.9783783 C175.41796875 166.79296875 175.41796875 166.79296875 175.41796875 168.79296875 C147.69796875 168.79296875 119.97796875 168.79296875 91.41796875 168.79296875 C87.12796875 161.20296875 82.83796875 153.61296875 78.41796875 145.79296875 C77.42796875 144.14296875 76.43796875 142.49296875 75.41796875 140.79296875 C75.41796875 140.13296875 75.41796875 139.47296875 75.41796875 138.79296875 C60.71916279 138.26676274 46.02373578 137.90524061 31.31636143 137.73337936 C24.48448572 137.64980987 17.66133243 137.51412197 10.83374023 137.25341797 C-17.76277282 134.42886346 -17.76277282 134.42886346 -43.7600708 142.63696289 C-50.77997257 149.56807428 -53.96563169 158.48957146 -56.58203125 167.79296875 C-58.25539121 169.46632871 -60.29591034 168.9125977 -62.5295105 168.91738892 C-63.23657135 168.91379364 -63.9436322 168.91019836 -64.67211914 168.90649414 C-65.41353653 168.90664017 -66.15495392 168.90678619 -66.9188385 168.90693665 C-69.38081746 168.9062374 -71.84272168 168.89844449 -74.3046875 168.890625 C-76.00719664 168.88876086 -77.70970632 168.88733694 -79.41221619 168.88633728 C-83.90196198 168.88251177 -88.39167563 168.87268122 -92.88140869 168.8616333 C-97.45934616 168.85141988 -102.03728881 168.84683981 -106.61523438 168.84179688 C-115.60418082 168.83105897 -124.59310337 168.81398216 -133.58203125 168.79296875 C-129.21193927 161.10026184 -129.21193927 161.10026184 -126.953125 157.953125 C-126.48148926 157.29143311 -126.00985352 156.62974121 -125.52392578 155.94799805 C-125.02747559 155.25746338 -124.53102539 154.56692871 -124.01953125 153.85546875 C-122.94188065 152.34303733 -121.86507598 150.83000284 -120.7890625 149.31640625 C-120.24975098 148.55811523 -119.71043945 147.79982422 -119.15478516 147.01855469 C-116.80604205 143.69487538 -114.5041748 140.33992938 -112.20703125 136.98046875 C-108.038003 130.8900821 -103.82103928 124.83484583 -99.58203125 118.79296875 C-95.38651098 112.81239792 -91.21038126 106.82011475 -87.08203125 100.79296875 C-82.95368062 94.76582184 -78.77747247 88.77359569 -74.58203125 82.79296875 C-70.43007145 76.87365844 -66.29439627 70.94458277 -62.20703125 64.98046875 C-57.79615851 58.54517536 -53.35158167 52.13386448 -48.89453125 45.73046875 C-47.88664551 44.28232788 -47.88664551 44.28232788 -46.85839844 42.80493164 C-43.31120762 37.70973062 -39.76166795 32.6161723 -36.2109375 27.5234375 C-35.49832764 26.50064697 -34.78571777 25.47785645 -34.05151367 24.42407227 C-32.69699521 22.48000119 -31.34173914 20.53644374 -29.9855957 18.59350586 C-29.36515381 17.70284424 -28.74471191 16.81218262 -28.10546875 15.89453125 C-27.56841309 15.12447754 -27.03135742 14.35442383 -26.47802734 13.56103516 C-24.56038674 10.97796577 -24.56038674 10.97796577 -23.68043518 8.53489685 C-19.11841439 -1.1183057 -9.33452754 0.15994082 0 0 Z M19.41796875 42.79296875 C18.3421935 44.40460405 17.31767351 46.05044231 16.3125 47.70703125 C15.66522949 48.76792969 15.01795898 49.82882812 14.35107422 50.921875 C13.83259918 51.77676514 13.83259918 51.77676514 13.3036499 52.64892578 C11.49427778 55.6315136 9.67319559 58.60692083 7.8515625 61.58203125 C7.48109802 62.18742737 7.11063354 62.79282349 6.72894287 63.41656494 C2.60915228 70.13516191 -1.62775458 76.77809584 -5.88745117 83.40869141 C-12.69788306 92.17602848 -12.69788306 92.17602848 -16.58203125 101.79296875 C6.84796875 101.79296875 30.27796875 101.79296875 54.41796875 101.79296875 C49.7784182 93.25787282 49.7784182 93.25787282 45.0078125 84.8046875 C44.41629395 83.77843262 43.82477539 82.75217773 43.21533203 81.69482422 C42.60157715 80.63408691 41.98782227 79.57334961 41.35546875 78.48046875 C40.71077637 77.36559082 40.06608398 76.25071289 39.40185547 75.10205078 C34.96803022 67.44618957 30.52087397 59.79813753 26.04296875 52.16796875 C25.48988037 51.22010498 24.93679199 50.27224121 24.36694336 49.2956543 C23.86042236 48.43625244 23.35390137 47.57685059 22.83203125 46.69140625 C22.38811035 45.93520996 21.94418945 45.17901367 21.48681641 44.39990234 C21.13409668 43.86961426 20.78137695 43.33932617 20.41796875 42.79296875 C20.08796875 42.79296875 19.75796875 42.79296875 19.41796875 42.79296875 Z " fill="#FF6618" transform="translate(984.58203125,310.20703125)"/>
<path d="M0 0 C65.67 0 131.34 0 199 0 C199.33 11.88 199.66 23.76 200 36 C159.08 36 118.16 36 76 36 C76 44.58 76 53.16 76 62 C113.62 62 151.24 62 190 62 C190 73.88 190 85.76 190 98 C152.38 98 114.76 98 76 98 C76 108.23 76 118.46 76 129 C118.24 129 160.48 129 204 129 C204 141.54 204 154.08 204 167 C136.68 167 69.36 167 0 167 C0 111.89 0 56.78 0 0 Z " fill="#FF6719" transform="translate(333,312)"/>
</svg>
